<?xml version="1.0" encoding="UTF-8" standalone="no"?>
<!-- Created with Inkscape (http://www.inkscape.org/) -->

<svg
   xmlns:dc="http://purl.org/dc/elements/1.1/"
   xmlns:cc="http://creativecommons.org/ns#"
   xmlns:rdf="http://www.w3.org/1999/02/22-rdf-syntax-ns#"
   xmlns:svg="http://www.w3.org/2000/svg"
   xmlns="http://www.w3.org/2000/svg"
   xmlns:sodipodi="http://sodipodi.sourceforge.net/DTD/sodipodi-0.dtd"
   xmlns:inkscape="http://www.inkscape.org/namespaces/inkscape"
   width="2.9755304in"
   height="3.4316871in"
   viewBox="0 0 75.578472 87.164853"
   version="1.1"
   id="svg903"
   inkscape:version="0.92.2 2405546, 2018-03-11"
   sodipodi:docname="logo-ropper.svg">
  <defs
     id="defs897" />
  <sodipodi:namedview
     id="base"
     pagecolor="#ffffff"
     bordercolor="#666666"
     borderopacity="1.0"
     inkscape:pageopacity="0.0"
     inkscape:pageshadow="2"
     inkscape:zoom="0.7"
     inkscape:cx="136.83289"
     inkscape:cy="293.20672"
     inkscape:document-units="mm"
     inkscape:current-layer="layer1"
     showgrid="false"
     showguides="true"
     inkscape:guide-bbox="true"
     inkscape:window-width="1261"
     inkscape:window-height="1008"
     inkscape:window-x="10"
     inkscape:window-y="34"
     inkscape:window-maximized="0"
     units="in"
     fit-margin-top="0"
     fit-margin-left="0"
     fit-margin-right="0"
     fit-margin-bottom="0" />
  <metadata
     id="metadata900">
    <rdf:RDF>
      <cc:Work
         rdf:about="">
        <dc:format>image/svg+xml</dc:format>
        <dc:type
           rdf:resource="http://purl.org/dc/dcmitype/StillImage" />
        <dc:title></dc:title>
      </cc:Work>
    </rdf:RDF>
  </metadata>
  <g
     inkscape:label="Layer 1"
     inkscape:groupmode="layer"
     id="layer1"
     transform="translate(-66.702259,-102.98169)">
    <g
       id="g1547"
       transform="matrix(1.40654,0,0,1.4309324,15.341694,-6.7668626)" />
    <g
       id="g8006"
       transform="matrix(1.3184216,-1.6092812,1.6092812,1.3184216,-372.25928,-72.047494)">
      <g
         id="g3118-0-8"
         transform="matrix(0.27889782,0,0,0.34991437,26.120933,9.7556058)"
         style="fill:none;fill-opacity:1;stroke:#ffffff;stroke-width:1.71580911;stroke-miterlimit:4;stroke-dasharray:none;stroke-opacity:1">
        <path
           inkscape:connector-curvature="0"
           id="path3110-0-0"
           d="m 6.1949427,158.47306 34.2485093,-21.35699 14.741072,-0.37797 16.630953,3.02381 20.032733,10.20535"
           style="fill:none;fill-opacity:1;stroke:#ffffff;stroke-width:1.71580911;stroke-linecap:butt;stroke-linejoin:miter;stroke-miterlimit:4;stroke-dasharray:none;stroke-opacity:1"
           sodipodi:nodetypes="ccccc" />
        <path
           inkscape:connector-curvature="0"
           id="path3112-9-3"
           d="M 71.815476,139.76191 7.5595235,116.70536"
           style="fill:none;fill-opacity:1;stroke:#ffffff;stroke-width:1.71580911;stroke-linecap:butt;stroke-linejoin:miter;stroke-miterlimit:4;stroke-dasharray:none;stroke-opacity:1" />
        <path
           inkscape:connector-curvature="0"
           id="path3114-4-67"
           d="M 71.815476,139.76191 17.764882,103.47619"
           style="fill:none;fill-opacity:1;stroke:#ffffff;stroke-width:1.71580911;stroke-linecap:butt;stroke-linejoin:miter;stroke-miterlimit:4;stroke-dasharray:none;stroke-opacity:1" />
        <path
           inkscape:connector-curvature="0"
           id="path3116-2-7"
           d="M 71.815475,139.76191 32.505951,91.758928"
           style="fill:none;fill-opacity:1;stroke:#ffffff;stroke-width:1.71580911;stroke-linecap:butt;stroke-linejoin:miter;stroke-miterlimit:4;stroke-dasharray:none;stroke-opacity:1" />
      </g>
      <path
         sodipodi:type="star"
         style="fill:#ffffff;fill-opacity:1;stroke:none;stroke-width:0.53599995;stroke-miterlimit:4;stroke-dasharray:none;stroke-opacity:1"
         id="path3120-3-7"
         sodipodi:sides="3"
         sodipodi:cx="49.798363"
         sodipodi:cy="44.889877"
         sodipodi:r1="7.0693922"
         sodipodi:r2="3.5346961"
         sodipodi:arg1="0.90858083"
         sodipodi:arg2="1.9557784"
         inkscape:flatsided="true"
         inkscape:rounded="0"
         inkscape:randomized="0"
         d="M 54.145089,50.465026 42.79678,45.866678 52.45322,38.337928 Z"
         inkscape:transform-center-x="-0.12183003"
         inkscape:transform-center-y="0.17616846"
         transform="matrix(0.05615832,-0.15308734,0.15308734,0.05615832,21.177711,50.859733)" />
      <path
         sodipodi:type="star"
         style="fill:#ffffff;fill-opacity:1;stroke:none;stroke-width:0.53599995;stroke-miterlimit:4;stroke-dasharray:none;stroke-opacity:1"
         id="path3122-9-7"
         sodipodi:sides="3"
         sodipodi:cx="49.798363"
         sodipodi:cy="44.889877"
         sodipodi:r1="7.0693922"
         sodipodi:r2="3.5346961"
         sodipodi:arg1="0.90858083"
         sodipodi:arg2="1.9557784"
         inkscape:flatsided="true"
         inkscape:rounded="0"
         inkscape:randomized="0"
         d="M 54.145089,50.465026 42.79678,45.866678 52.45322,38.337928 Z"
         inkscape:transform-center-x="-0.22992201"
         inkscape:transform-center-y="0.065146783"
         transform="matrix(0.08508404,-0.13910498,0.13910498,0.08508404,24.442435,44.622403)" />
      <path
         sodipodi:type="star"
         style="fill:#ffffff;fill-opacity:1;stroke:none;stroke-width:0.53599995;stroke-miterlimit:4;stroke-dasharray:none;stroke-opacity:1"
         id="path3124-8-4"
         sodipodi:sides="3"
         sodipodi:cx="49.798363"
         sodipodi:cy="44.889877"
         sodipodi:r1="7.0693922"
         sodipodi:r2="3.5346961"
         sodipodi:arg1="0.90858083"
         sodipodi:arg2="1.9557784"
         inkscape:flatsided="true"
         inkscape:rounded="0"
         inkscape:randomized="0"
         d="M 54.145089,50.465026 42.79678,45.866678 52.45322,38.337928 Z"
         inkscape:transform-center-x="0.10490607"
         inkscape:transform-center-y="0.19252469"
         transform="matrix(-0.00723951,-0.16290205,0.16290205,-0.00723951,21.148511,58.982994)" />
      <path
         sodipodi:type="star"
         style="fill:#ffffff;fill-opacity:1;stroke:none;stroke-width:0.53599995;stroke-miterlimit:4;stroke-dasharray:none;stroke-opacity:1"
         id="path3126-9-0"
         sodipodi:sides="3"
         sodipodi:cx="49.798363"
         sodipodi:cy="44.889877"
         sodipodi:r1="7.0693922"
         sodipodi:r2="3.5346961"
         sodipodi:arg1="0.90858083"
         sodipodi:arg2="1.9557784"
         inkscape:flatsided="true"
         inkscape:rounded="0"
         inkscape:randomized="0"
         d="M 54.145089,50.465026 42.79678,45.866678 52.45322,38.337928 Z"
         inkscape:transform-center-x="-0.49715424"
         inkscape:transform-center-y="0.10552993"
         transform="matrix(-0.14101256,-0.08188374,0.08188374,-0.14101256,30.949199,75.82353)" />
    </g>
    <path
       inkscape:transform-center-y="-5.6100158e-06"
       inkscape:transform-center-x="4.1364106e-06"
       d="M 142.18924,168.43456 104.4,190.14654 66.702259,168.2761 l 0.09149,-43.58243 37.789231,-21.71198 37.69775,21.87045 z"
       inkscape:randomized="0"
       inkscape:rounded="0"
       inkscape:flatsided="true"
       sodipodi:arg2="1.0492968"
       sodipodi:arg1="0.52569803"
       sodipodi:r2="37.743568"
       sodipodi:r1="43.582523"
       sodipodi:cy="146.56412"
       sodipodi:cx="104.49149"
       sodipodi:sides="6"
       id="path1827-6-9-1-4"
       style="fill:#e8e8e8;fill-opacity:1;stroke:none;stroke-width:0.56975359;stroke-opacity:1"
       sodipodi:type="star" />
    <path
       transform="matrix(0.86672812,0,0,0.8416625,50.374156,98.535286)"
       inkscape:transform-center-y="-4.8063215e-06"
       inkscape:transform-center-x="3.8694962e-06"
       d="M 100.13638,78.93469 62.347146,100.64667 24.649402,78.776224 24.740893,35.193796 62.530128,13.481816 100.22787,35.352263 Z"
       inkscape:randomized="0"
       inkscape:rounded="0"
       inkscape:flatsided="true"
       sodipodi:arg2="1.0492968"
       sodipodi:arg1="0.52569803"
       sodipodi:r2="37.743568"
       sodipodi:r1="43.582523"
       sodipodi:cy="57.064243"
       sodipodi:cx="62.438637"
       sodipodi:sides="6"
       id="path1827-0-0-0-3-6"
       style="fill:#87becd;fill-opacity:1;stroke:none;stroke-width:0.56975359;stroke-opacity:1"
       sodipodi:type="star" />
    <path
       inkscape:connector-curvature="0"
       id="path3787-0-6"
       d="m 104.57078,125.30447 -7.260826,20.03124 -0.47247,7.55952 -5.747988,19.20244 26.962544,-3e-5 -6.37901,-26.95092 z"
       style="fill:none;fill-opacity:1;stroke:none;stroke-width:0.26458332px;stroke-linecap:butt;stroke-linejoin:miter;stroke-opacity:1" />
    <path
       inkscape:connector-curvature="0"
       id="path8716-1"
       d="m 71.817789,128.15658 65.347381,36.81507 0.0793,-36.68168 -65.505988,36.54831 z"
       style="fill:#6cacbd;fill-opacity:1;stroke:none;stroke-width:0.26458335px;stroke-linecap:butt;stroke-linejoin:miter;stroke-opacity:1" />
    <path
       sodipodi:nodetypes="ccccccccccccssscccccccccccccccccscccccc"
       inkscape:connector-curvature="0"
       id="path8793-3"
       d="m 90.294899,160.09655 c 0,0 -0.570276,-7.34341 2.071449,-11.04183 2.641732,-3.69838 4.649426,-4.54376 5.494776,-5.07212 0.84531,-0.52836 4.015436,-4.7551 4.015416,-6.1288 0,-1.37369 -0.10562,-6.34008 -0.10562,-6.34008 v 0 c 0,0 -4.332436,-4.22678 -4.860796,-6.86848 -0.528341,-2.64172 -1.268025,-7.81949 1.6907,-5.81183 2.958616,2.00788 -0.47486,-0.52448 -0.47486,-0.52448 0,0 2.272556,-3.217 5.229966,2.95484 2.85306,6.23445 3.9157,8.78544 3.9157,8.78544 3.4362,0.93844 5.49687,1.50741 8.02482,4.84587 0.95148,0.93705 0.92236,1.66235 0.46158,1.7755 -0.20312,0.0498 -0.0885,-0.0392 -0.0263,0.26382 0.19163,0.93252 -0.5083,1.13829 -0.51177,1.28769 -0.0135,0.5821 -0.24044,1.21685 -0.24044,1.21685 -0.42859,0.85289 -2.14859,1.45793 -3.58629,1.61767 0,0 -0.59787,1.19544 0.44835,3.36237 1.04602,2.16686 1.71852,5.30508 1.71852,5.30508 l 0.67246,4.40842 c 0,0 0.82193,3.28765 -0.22413,4.55787 -1.04567,1.27055 -1.78395,0.13142 -1.78395,0.13142 0,0 -0.5884,1.23223 -1.1768,0.49434 -0.58844,-0.73783 -0.56965,-0.59785 -0.56965,-0.59785 l -1.04606,8.03596 c 0,0 4.0154,0.81894 3.8305,2.16622 -0.0897,0.66028 -0.3505,1.92426 -0.71318,1.92579 -0.0338,-0.14319 -0.0674,-0.70733 -0.11723,-0.69065 -0.0535,0.003 -0.123,0.41321 -0.0782,0.55249 -0.14678,0.14987 -0.47601,0.28184 -0.67608,-0.01 -0.0269,-0.21403 -0.0187,-0.80604 -0.14818,-0.82177 -0.10555,0.0158 -0.0888,0.76376 -0.0952,0.97778 -2.14939,0.037 -3.9883,-0.28895 -6.13869,-0.26292 -1.55225,0.0189 -3.4377,-0.11487 -4.98931,0.17662 -1.611226,0.44194 -3.834742,0.74055 -5.673131,0.6146 -1.56709,-0.35383 -1.956258,-0.37253 -3.787343,-1.59499 -0.832875,-1.00765 -0.444901,-1.30684 -0.666264,-1.96026 -7.137046,3.58597 -6.631854,-10.93859 0.115482,-7.73115 z"
       style="fill:#000000;fill-opacity:0.87447695;stroke:none;stroke-width:0.10460681px;stroke-linecap:butt;stroke-linejoin:miter;stroke-opacity:0.69456063" />
  </g>
</svg>
